<svg width="390" height="299" viewBox="0 0 390 299" fill="none" xmlns="http://www.w3.org/2000/svg">
<g style="mix-blend-mode:multiply" opacity="0.56">
<g style="mix-blend-mode:multiply" opacity="0.56">
<path d="M341.404 187.505C350.646 175.324 350.934 158.649 342.047 150.261C333.161 141.873 318.465 144.947 309.222 157.129C299.98 169.31 299.692 185.985 308.579 194.373C317.465 202.761 332.162 199.686 341.404 187.505Z" fill="#BBDEFB" fill-opacity="0.35"/>
</g>
<g style="mix-blend-mode:multiply" opacity="0.56">
<path d="M339.982 193.301C349.224 181.12 349.513 164.445 340.626 156.057C331.739 147.669 317.043 150.744 307.801 162.925C298.559 175.106 298.27 191.781 307.157 200.169C316.044 208.557 330.74 205.483 339.982 193.301Z" fill="#BBDEFB" fill-opacity="0.35"/>
</g>
</g>
<g style="mix-blend-mode:multiply" opacity="0.56">
<g style="mix-blend-mode:multiply" opacity="0.56">
<path d="M383.303 253.484C383.253 255.005 383.122 256.52 382.911 258.023C382.878 258.279 382.837 258.537 382.796 258.794C382.419 261.172 381.857 263.509 381.118 265.779C381.041 266.022 380.96 266.268 380.874 266.507C380.331 268.103 379.711 269.665 379.017 271.186C376.458 276.789 372.693 282.462 367.507 288.045C366.525 289.1 365.493 290.153 364.411 291.201H1.92456C1.94944 290.17 2.00211 289.119 2.08844 288.045C2.59656 281.381 4.20902 274.88 6.84393 268.872C8.1157 265.959 9.60259 263.17 11.2892 260.533C11.4267 260.308 11.5701 260.085 11.7165 259.864C11.9359 259.525 12.1642 259.189 12.3925 258.847C12.5271 258.652 12.6573 258.459 12.7963 258.263C13.9162 256.653 15.1477 255.047 16.491 253.445C16.6549 253.249 16.8221 253.051 16.9929 252.851C17.2445 252.561 17.4977 252.272 17.7537 251.981C20.5364 248.863 23.5318 245.991 26.7131 243.39C31.5812 239.375 37.3507 235.501 44.1664 231.858C44.361 231.75 44.5615 231.644 44.7649 231.541C47.2524 230.224 49.8862 228.94 52.6663 227.688L55.5928 226.368C55.6115 226.354 55.6324 226.345 55.6542 226.34C55.9264 226.213 56.1956 226.087 56.4648 225.966C56.5131 225.942 56.5614 225.924 56.6112 225.901C56.835 225.798 57.0501 225.695 57.2711 225.593C57.9061 225.304 58.5334 225.015 59.1528 224.724C60.735 223.996 62.2641 223.279 63.74 222.572C121.868 194.866 101.983 188.702 104.355 145.816C104.378 145.354 104.419 144.887 104.469 144.42C104.489 144.22 104.513 144.019 104.542 143.818C110.307 98.0798 209.72 19.8078 269.594 41.8226C284.665 47.3635 294.993 56.4965 301.775 67.3758C322.329 100.321 310.416 149.243 299.832 162.742C299.312 163.41 298.824 164.106 298.368 164.829C298.254 165.011 298.14 165.193 298.03 165.379C297.9 165.595 297.773 165.813 297.651 166.032C297.558 166.195 297.471 166.349 297.386 166.514C297.28 166.705 297.179 166.9 297.081 167.096C296.983 167.292 296.877 167.488 296.788 167.689C288.118 185.548 293.276 217.63 322.914 216.383C323.207 216.375 323.499 216.36 323.802 216.342C325.037 216.263 326.315 216.126 327.636 215.931C329.359 215.677 331.155 215.318 333.022 214.852C334.182 214.564 335.371 214.231 336.591 213.853C340.06 212.783 343.654 212.298 347.252 212.415C347.544 212.423 347.837 212.438 348.13 212.456C351.296 212.65 354.427 213.295 357.446 214.375C357.764 214.483 358.078 214.599 358.387 214.726C361.111 215.781 363.719 217.177 366.161 218.886C376.588 226.149 383.783 238.858 383.303 253.484Z" fill="#BBDEFB" fill-opacity="0.35"/>
</g>
<g style="mix-blend-mode:multiply" opacity="0.56">
<path d="M389.869 254.934C389.808 255.724 389.723 256.512 389.616 257.307C389.584 257.558 389.548 257.811 389.507 258.062C389.324 259.299 389.079 260.541 388.775 261.793C386.674 270.543 381.752 279.54 373.221 288.056C372.157 289.117 371.035 290.169 369.855 291.213H7.33838C7.58274 290.181 7.85197 289.125 8.15779 288.056C9.11921 284.669 10.3164 281.37 11.7383 278.191C12.2202 277.103 12.7406 276.007 13.2996 274.904C13.6898 274.142 14.0931 273.375 14.5096 272.602C15.9515 269.981 17.5306 267.457 19.2388 265.043C19.3734 264.852 19.508 264.661 19.647 264.468C19.7158 264.375 19.7846 264.277 19.8548 264.184C20.0099 263.969 20.1636 263.755 20.3274 263.531C21.4239 262.046 22.5998 260.562 23.8553 259.078C24.303 258.554 24.7552 258.031 25.2234 257.507C25.8877 256.762 26.5735 256.017 27.2807 255.272C28.659 253.824 30.1164 252.386 31.6704 250.958C34.0427 248.763 36.6326 246.597 39.4401 244.458C39.6918 244.267 39.9405 244.076 40.198 243.883C42.6855 242.031 45.3354 240.209 48.1799 238.421C48.3672 238.305 48.5575 238.182 48.7491 238.066C50.9547 236.699 53.2715 235.354 55.6995 234.032L56.3228 233.696C56.9871 233.337 57.6607 232.982 58.3435 232.632C58.503 232.547 58.6654 232.468 58.8293 232.384C58.9025 232.341 58.9756 232.305 59.0576 232.268C59.0849 232.25 59.1133 232.234 59.1424 232.22C59.3385 232.122 59.5331 232.02 59.7277 231.922C61.785 230.885 63.9184 229.869 66.1279 228.873C137.741 196.641 101.831 191.212 104.334 145.801C104.358 145.339 104.399 144.873 104.448 144.406C104.469 144.205 104.492 144.004 104.521 143.803C110.521 98.3539 217.629 30.093 277.497 52.1079C287.929 55.9448 295.853 61.1984 301.748 67.3611C330.177 97.0646 311.465 147.856 299.805 162.727C299.286 163.395 298.797 164.092 298.342 164.815C298.228 164.996 298.114 165.179 298.004 165.365C297.874 165.58 297.746 165.799 297.625 166.017C297.536 166.181 297.445 166.334 297.36 166.499C297.253 166.69 297.152 166.886 297.054 167.082C296.956 167.277 296.855 167.478 296.762 167.674C288.576 184.74 294.513 213.6 322.611 213.329C322.814 213.329 323.022 213.329 323.23 213.319C323.261 213.322 323.292 213.322 323.323 213.319C323.616 213.319 323.909 213.306 324.212 213.287C326.307 213.188 328.395 212.949 330.465 212.574C330.758 212.526 331.043 212.471 331.343 212.41H331.351C333.745 211.946 336.116 211.346 338.456 210.615C341.031 209.815 343.67 209.302 346.336 209.084C351.219 208.688 356.126 209.276 360.822 210.821C361.152 210.928 361.481 211.039 361.808 211.157C364.271 212.033 366.656 213.162 368.934 214.527C382.132 222.423 391.205 237.817 389.869 254.934Z" fill="#BBDEFB" fill-opacity="0.35"/>
</g>
</g>
<g style="mix-blend-mode:multiply" opacity="0.56">
<g style="mix-blend-mode:multiply" opacity="0.56">
<path d="M86.6729 184.008C102.586 163.034 103.082 134.323 87.7805 119.879C72.479 105.436 47.1744 110.73 31.2612 131.704C15.348 152.678 14.8521 181.389 30.1536 195.832C45.4551 210.276 70.7597 204.982 86.6729 184.008Z" fill="#BBDEFB" fill-opacity="0.35"/>
</g>
<g style="mix-blend-mode:multiply" opacity="0.56">
<path d="M84.2252 193.988C100.138 173.014 100.634 144.303 85.3328 129.86C70.0313 115.417 44.7267 120.711 28.8135 141.685C12.9002 162.658 12.4043 191.37 27.7059 205.813C43.0074 220.256 68.3119 214.962 84.2252 193.988Z" fill="#BBDEFB" fill-opacity="0.35"/>
</g>
</g>
<g style="mix-blend-mode:multiply" opacity="0.56">
<g style="mix-blend-mode:multiply" opacity="0.56">
<path d="M94.9261 94.803C104.93 86.5287 108.145 72.4605 102.108 63.3807C96.0714 54.301 83.0683 53.6481 73.0649 61.9224C63.0615 70.1967 59.846 84.2649 65.8828 93.3447C71.9196 102.424 84.9228 103.077 94.9261 94.803Z" fill="#BBDEFB" fill-opacity="0.35"/>
</g>
<g style="mix-blend-mode:multiply" opacity="0.56">
<path d="M92.6874 99.4008C102.691 91.1265 105.906 77.0582 99.8695 67.9785C93.8326 58.8988 80.8295 58.2458 70.8261 66.5202C60.8227 74.7945 57.6072 88.8627 63.644 97.9424C69.6808 107.022 82.684 107.675 92.6874 99.4008Z" fill="#BBDEFB" fill-opacity="0.35"/>
</g>
</g>
<path d="M134.906 286.22L134.015 275.72L147.956 274.178L147.634 284.833L143.355 289.677L134.906 286.22Z" fill="#F1B689"/>
<path d="M166.305 296.936C166.212 297.429 166.078 297.762 165.949 297.842L133.293 297.791C133.208 297.389 133.136 296.991 133.081 296.606C132.048 289.877 134.646 285.676 134.646 285.676C138.195 287.594 142.58 287.827 147.64 284.829C148.635 285.527 149.546 286.22 150.501 286.633C151.145 286.911 151.806 287.148 152.481 287.342C152.792 287.433 153.101 287.516 153.408 287.586C154.191 287.766 154.949 287.888 155.691 287.984C158.687 288.358 161.299 288.248 163.313 289.466C166.413 291.333 166.635 295.172 166.305 296.936Z" fill="#51567C"/>
<path d="M166.305 296.936C166.212 297.429 166.002 297.889 165.881 297.969L133.299 297.791C133.214 297.389 133.142 296.991 133.087 296.605L166.305 296.936Z" fill="#686E9E"/>
<path d="M152.474 287.346L152.408 287.365C152.345 287.38 150.795 287.886 149.973 289.303C149.924 289.388 149.859 289.463 149.781 289.523C149.702 289.583 149.613 289.627 149.518 289.653C149.423 289.678 149.323 289.684 149.226 289.671C149.128 289.658 149.034 289.626 148.949 289.576C148.776 289.476 148.651 289.312 148.599 289.12C148.548 288.928 148.574 288.724 148.673 288.551C149.119 287.779 149.744 287.126 150.494 286.645C151.139 286.921 151.8 287.155 152.474 287.346Z" fill="#686E9E"/>
<path d="M155.69 287.986H155.669C154.721 288.327 153.924 288.99 153.416 289.86C153.316 290.032 153.152 290.158 152.959 290.209C152.767 290.261 152.562 290.234 152.389 290.135C152.304 290.086 152.229 290.02 152.169 289.941C152.109 289.863 152.066 289.773 152.04 289.678C152.015 289.582 152.009 289.483 152.023 289.385C152.036 289.288 152.068 289.193 152.118 289.108C152.452 288.526 152.888 288.01 153.406 287.584C154.191 287.768 154.949 287.891 155.69 287.986Z" fill="#686E9E"/>
<path d="M55.02 257.856L62.2466 248.533L72.7763 257.832L65.3253 265.453L58.8969 266.122L55.02 257.856Z" fill="#F1B689"/>
<path d="M70.8685 287.005C70.4662 287.304 70.1401 287.456 69.9919 287.429C69.4795 287.338 58.8122 277.53 51.5835 270.683L50.5693 269.719C48.6044 267.843 46.9698 266.264 46 265.273C46.2117 264.919 46.4235 264.578 46.6352 264.252C50.4317 258.601 55.1873 257.265 55.1873 257.265C56.5 261.076 59.5681 264.22 65.3189 265.444C65.5793 266.634 65.7783 267.759 66.2018 268.709C66.4876 269.351 66.8144 269.973 67.1801 270.572C67.3494 270.85 67.5188 271.119 67.6988 271.379C68.1379 272.015 68.6086 272.628 69.109 273.217C71.0591 275.521 73.0558 277.21 73.7143 279.465C74.7306 282.953 72.3062 285.93 70.8685 287.005Z" fill="#51567C"/>
<path d="M70.8685 287.006C70.4662 287.304 70.1401 287.457 69.9919 287.429C69.4795 287.338 58.8122 277.531 51.5835 270.683L50.5693 269.72C48.6044 267.844 46.9698 266.264 46 265.273C46.2117 264.92 46.4235 264.579 46.6352 264.253L70.8685 287.006Z" fill="#686E9E"/>
<path d="M67.1862 270.581C67.1651 270.573 67.1446 270.563 67.1248 270.551C67.0655 270.52 65.5855 269.842 64.0208 270.34C63.924 270.369 63.8222 270.38 63.7215 270.369C63.6208 270.359 63.5231 270.329 63.4342 270.28C63.2642 270.187 63.1379 270.03 63.0828 269.844C63.0532 269.75 63.0426 269.652 63.0513 269.554C63.06 269.456 63.088 269.36 63.1336 269.273C63.1793 269.186 63.2417 269.109 63.3172 269.046C63.3928 268.983 63.4801 268.935 63.574 268.906C64.4253 268.638 65.3284 268.577 66.208 268.728C66.4942 269.366 66.821 269.985 67.1862 270.581Z" fill="#686E9E"/>
<path d="M69.1193 273.23H69.1003C68.1724 272.839 67.1366 272.786 66.1741 273.082C66.0774 273.112 65.9755 273.122 65.8747 273.112C65.7739 273.102 65.6762 273.071 65.5875 273.022C65.4205 272.93 65.2937 272.779 65.2318 272.599C65.1729 272.408 65.192 272.202 65.2849 272.026C65.3779 271.85 65.537 271.718 65.7273 271.659C66.3671 271.459 67.0376 271.375 67.707 271.411C68.1473 272.04 68.6187 272.647 69.1193 273.23Z" fill="#686E9E"/>
<path d="M188.461 123.568C188.461 123.568 166.391 114.376 159.963 109.127C158.811 98.3031 162.127 83.0835 162.648 75.9691C164.215 54.5075 137.045 51.0921 137.184 79.8587C137.294 103.057 141.447 112.678 146.647 123.07C157.693 127.696 184.245 127.591 184.245 127.591L188.461 123.568Z" fill="#F1B689"/>
<path d="M129.973 143.187C129.973 143.187 134.508 183.398 116.792 212.652C103.22 235.064 74.6691 259.009 74.6691 259.009C74.6691 259.009 66.7819 259.009 60.4595 247.341C74.7411 230.025 75.4928 218.187 90.3885 203.126C95.0065 187.726 97.4478 137.358 97.4478 137.358L129.973 143.187Z" fill="#51567C"/>
<path d="M151.591 53.6415C140.64 53.8258 152.165 90.7082 153.939 98.894C158.564 98.8156 164.338 97.3017 164.338 97.3017C164.338 97.3017 166.118 55.8732 151.591 53.6415Z" fill="#F5E34C"/>
<path d="M151.229 143.187C151.229 143.187 155.326 193.733 155.69 207.905C156.114 224.289 152.015 245.17 149.69 275.661C139.086 281.335 130.669 275.661 130.669 275.661C130.669 275.661 124.777 244.825 128.495 213.891C124.751 191.063 117.033 139.937 117.033 139.937L151.229 143.187Z" fill="#51567C"/>
<path d="M98.7818 121.978C95.737 86.9459 102.273 52.4688 124.777 51.2788L150.369 53.0701C163.088 57.5547 158.989 83.3379 158.989 83.3379L153.596 143.535C153.596 143.535 101.909 152.697 95.1568 138.849C93.0225 134.472 99.165 126.386 98.7818 121.978Z" fill="#F5E34C"/>
<path d="M147.644 58.2872C147.111 60.7519 142.62 61.8741 137.616 60.79C132.613 59.7059 128.986 56.8284 129.52 54.3638C130.053 51.8992 134.544 50.7642 139.55 51.8589C144.555 52.9536 148.178 55.8205 147.644 58.2872Z" fill="#F1B689"/>
<path d="M164.878 121.103C164.878 121.103 141.22 111.664 130.492 107.408C129.34 96.5862 132.929 80.9029 133.456 73.78C135.023 52.3184 107.853 48.9031 107.992 77.6696C108.105 100.868 112.255 110.489 117.455 120.881C128.501 125.507 162.064 127.445 162.064 127.445L164.878 121.103Z" fill="#F1B689"/>
<path d="M212.148 137.358H162.602V126.348H212.148C213.608 126.348 215.008 126.928 216.041 127.96C217.073 128.993 217.653 130.393 217.653 131.853C217.653 133.313 217.073 134.713 216.041 135.746C215.008 136.778 213.608 137.358 212.148 137.358Z" fill="#000644"/>
<path d="M125.562 53.6417C114.717 52.1108 101.388 58.7932 103.398 98.9534C107.978 99.6013 133.361 97.395 133.361 97.395C133.361 97.395 139.567 58.1199 125.562 53.6417Z" fill="#F5E34C"/>
<path d="M143.78 41.0583C138.173 43.9273 132.334 37.571 132.334 37.571C128.522 38.3078 127.802 34.505 127.802 34.505C125.897 34.613 122.958 33.6242 122.484 30.1009C122.083 27.1175 124.834 26.2473 123.987 22.9018C123.307 20.2106 119.102 14.5552 127.182 11.0086C127.182 11.0086 125.605 6.12167 130.146 3.13618C135.707 -0.524751 138.565 2.57507 141.474 2.24476C144.72 1.86364 150.109 -3.24134 153.497 3.3458C153.497 3.3458 157.784 1.86364 160.884 4.24356C163.772 6.4541 164.06 10.5343 163.345 12.3404C163.345 12.3404 167.185 12.2409 169.163 15.1819C170.491 17.1532 170.681 20.2636 169.028 22.4212C168.409 23.2354 167.613 23.8968 166.698 24.3543C165.39 25.0975 166.682 28.858 165.722 30.0331C164.181 31.9197 162.335 33.5268 160.406 34.9772L143.78 41.0583Z" fill="#000644"/>
<path d="M146.637 49.4221C144.601 49.2579 142.617 48.6944 140.799 47.7637C138.981 46.833 137.364 45.5532 136.041 43.9976C134.717 42.442 133.713 40.6409 133.086 38.6972C132.459 36.7535 132.22 34.7052 132.385 32.6694L133.232 22.2287C133.396 20.1929 133.959 18.2095 134.89 16.3916C135.821 14.5736 137.1 12.9569 138.656 11.6336C140.212 10.3103 142.013 9.30649 143.957 8.67939C145.9 8.05229 147.948 7.81422 149.984 7.97878C154.095 8.3113 157.905 10.263 160.577 13.4046C163.249 16.5463 164.564 20.6206 164.232 24.7314L163.385 35.17C163.054 39.2808 161.103 43.0915 157.962 45.7642C154.821 48.4369 150.747 49.7526 146.637 49.4221Z" fill="#F1B689"/>
<path d="M146.262 39.6752C146.182 39.6513 146.098 39.6465 146.016 39.6611C145.934 39.6758 145.856 39.7095 145.79 39.7596C145.723 39.8097 145.669 39.8747 145.632 39.9494C145.596 40.0241 145.577 40.1064 145.578 40.1897C145.707 41.6062 147.136 42.9423 149.086 43.3171C151.036 43.6918 152.864 43.0185 153.52 41.7565C153.677 41.458 153.463 41.0959 153.084 41.0197L146.262 39.6752Z" fill="white"/>
<path d="M160.484 30.7931C160.458 31.1114 160.338 31.4148 160.14 31.665C159.941 31.9152 159.673 32.101 159.369 32.1988C159.065 32.2967 158.739 32.3023 158.432 32.2149C158.125 32.1275 157.85 31.951 157.643 31.7077C157.436 31.4645 157.306 31.1653 157.269 30.8481C157.232 30.5309 157.29 30.2099 157.435 29.9256C157.581 29.6412 157.807 29.4063 158.086 29.2506C158.365 29.0949 158.683 29.0253 159.002 29.0505C159.214 29.0674 159.42 29.1258 159.609 29.2226C159.799 29.3193 159.967 29.4524 160.104 29.6143C160.242 29.7762 160.347 29.9636 160.412 30.1659C160.477 30.3682 160.501 30.5813 160.484 30.7931Z" fill="#000644"/>
<path d="M148.811 28.7413C148.785 29.0602 148.666 29.3643 148.467 29.6152C148.268 29.866 148 30.0524 147.695 30.1506C147.391 30.2489 147.064 30.2546 146.756 30.1671C146.449 30.0797 146.174 29.9029 145.967 29.6592C145.759 29.4155 145.629 29.1157 145.592 28.7979C145.555 28.4801 145.613 28.1585 145.759 27.8737C145.905 27.589 146.132 27.3538 146.411 27.1981C146.691 27.0423 147.01 26.9729 147.329 26.9987C147.541 27.0155 147.747 27.074 147.936 27.1707C148.126 27.2675 148.294 27.4006 148.432 27.5625C148.569 27.7243 148.674 27.9118 148.739 28.1141C148.804 28.3163 148.829 28.5295 148.811 28.7413Z" fill="#000644"/>
<path d="M134.809 27.4458C134.809 27.4458 137.631 14.7649 144.337 17.8457C149.021 20.0033 164.496 25.6799 164.795 21.9724C165.727 10.4243 158.398 4.06373 145.578 3.816C134.567 2.9267 126.771 10.5916 124.779 22.8554C122.786 35.1192 132.19 39.7456 132.19 39.7456L134.809 27.4458Z" fill="#000644"/>
<path d="M146.251 49.0406L145.599 57.1247L130.915 55.452L132.66 33.8124L146.251 49.0406Z" fill="#F1B689"/>
<path d="M136.297 29.9145C136.721 32.8429 135.381 35.4536 133.318 35.7479C131.256 36.0422 129.249 33.9058 128.829 30.9796C128.41 28.0534 129.746 25.4405 131.809 25.1483C133.871 24.8561 135.88 26.9883 136.297 29.9145Z" fill="#F1B689"/>
<path d="M161.35 27.8313C161.166 27.8732 160.975 27.8636 160.796 27.8035C160.617 27.7433 160.459 27.635 160.338 27.4904C159.279 26.22 157.687 26.6731 157.619 26.6922C157.364 26.7584 157.093 26.7234 156.863 26.5946C156.633 26.4659 156.462 26.2532 156.384 26.001C156.307 25.7489 156.331 25.4767 156.45 25.2413C156.568 25.0059 156.774 24.8256 157.022 24.7378C157.143 24.6997 159.97 23.857 161.909 26.1798C162.021 26.3142 162.097 26.4751 162.129 26.647C162.161 26.819 162.148 26.9963 162.092 27.162C162.036 27.3277 161.938 27.4762 161.808 27.5934C161.678 27.7106 161.521 27.7925 161.35 27.8313Z" fill="#000644"/>
<path d="M150.132 25.6669C149.99 25.6997 149.842 25.7014 149.7 25.6718C149.557 25.6422 149.422 25.582 149.304 25.4954C148.76 25.1447 148.131 24.9498 147.484 24.9319C146.837 24.914 146.197 25.0737 145.635 25.3938C145.398 25.5191 145.121 25.5462 144.864 25.4693C144.607 25.3925 144.391 25.2178 144.261 24.983C144.132 24.7481 144.1 24.4718 144.172 24.2136C144.245 23.9554 144.416 23.7359 144.648 23.6025C145.552 23.0937 146.58 22.8471 147.616 22.8905C148.652 22.9339 149.655 23.2655 150.513 23.8481C150.671 23.9645 150.791 24.1236 150.861 24.3064C150.93 24.4893 150.946 24.6882 150.906 24.8796C150.865 25.0711 150.771 25.247 150.634 25.3865C150.497 25.5261 150.323 25.6234 150.132 25.6669Z" fill="#000644"/>
<path d="M147.113 32.5656C146.844 33.186 145.603 33.2453 144.343 32.699C143.084 32.1528 142.277 31.2169 142.546 30.5817C142.815 29.9465 144.053 29.902 145.315 30.4483C146.577 30.9946 147.38 31.9516 147.113 32.5656Z" fill="#F08459"/>
<path d="M162.089 33.6409C162.184 34.3099 161.16 35.0087 159.8 35.2035C158.441 35.3983 157.259 35.0108 157.164 34.3438C157.069 33.6769 158.094 32.976 159.453 32.7812C160.812 32.5864 161.994 32.9718 162.089 33.6409Z" fill="#F08459"/>
<path d="M153.203 31.9493C153.447 33.4099 153.911 34.825 154.581 36.1459C153.651 36.8489 152.464 37.1538 151.305 37.3592C152.777 37.7678 154.526 37.4671 155.578 36.3005C154.793 34.8416 154.143 33.3129 153.203 31.9493Z" fill="#F08459"/>
<path d="M125.226 193.348C125.226 193.348 132.692 166.197 132.664 146.055L133.954 145.955C133.954 145.955 133.954 167.887 125.457 194.815L125.226 193.348Z" fill="#464C6D"/>
<path d="M158.494 98.4751L157.621 98.6C157.643 98.3883 159.078 72.4357 159.078 72.4357C159.618 82.0888 158.578 97.6281 158.494 98.4751Z" fill="#E5C83C"/>
<path d="M102.826 99.4742C102.826 99.4742 103.097 77.2312 105.443 69.5981C105.443 69.5981 103.431 86.9266 103.961 98.4367C103.992 98.4367 107.183 99.0719 109.701 98.9702L109.913 100.2C109.58 100.209 102.826 99.4742 102.826 99.4742Z" fill="#E5C83C"/>
<path d="M130.382 98.8391L130.458 97.6386C131.275 97.5764 132.08 97.3974 132.846 97.1071C133.221 95.157 136.363 73.2528 136.363 73.2528C136.454 84.9979 133.89 97.8016 133.89 97.8016C132.801 98.3759 131.608 98.7286 130.382 98.8391Z" fill="#E5C83C"/>
<path d="M179.619 125.893C179.619 125.893 185.797 125.863 187.099 127.925C188.757 130.551 187.637 133.191 188.723 134.066C189.403 134.578 190.189 134.093 190.794 133.219C190.961 133.979 191.376 134.525 191.866 134.567C192.264 134.603 193.161 134.629 193.473 133.325C193.784 134.464 194.332 134.466 194.921 134.074C195.886 133.439 197.498 125.708 192.914 123.35C188.467 121.059 183.756 121.893 183.756 121.893L179.619 125.893Z" fill="#F1B689"/>
<path d="M162.057 127.441C162.057 127.441 165.621 126.907 167.762 127.587C169.419 130.21 168.132 133.191 169.22 134.057C169.898 134.57 170.686 134.085 171.291 133.21C171.456 133.971 171.873 134.517 172.35 134.559C172.75 134.595 173.648 134.621 173.957 133.316C174.27 134.455 174.819 134.458 175.407 134.066C176.373 133.431 178.228 124.669 173.644 122.31C169.197 120.019 162.14 120.684 162.14 120.684L162.057 127.441Z" fill="#F1B689"/>
<path d="M167.45 132.294C167.45 133.299 167.152 134.281 166.594 135.117C166.035 135.953 165.242 136.604 164.313 136.988C163.385 137.373 162.363 137.474 161.377 137.278C160.391 137.082 159.486 136.598 158.775 135.887C158.065 135.176 157.581 134.271 157.385 133.285C157.188 132.299 157.289 131.277 157.674 130.349C158.058 129.42 158.71 128.627 159.545 128.068C160.381 127.51 161.363 127.212 162.369 127.212C163.716 127.212 165.009 127.747 165.962 128.7C166.915 129.653 167.45 130.946 167.45 132.294Z" fill="#51567C"/>
<path d="M231.41 273.541L207.486 136.664L211.007 136.041L234.931 272.918L231.41 273.541Z" fill="#000644"/>
<path d="M274.894 130.938C275.459 141.525 277.998 152.415 284.056 161.253L281.339 163.078C275.468 153.516 273.331 142.031 273.335 130.923L274.894 130.938Z" fill="#56A176"/>
<path d="M280.268 121.226C279.499 133.03 279.796 145.72 285.335 156.421L282.425 157.924C277.295 146.427 277.708 133.323 279.283 121.095L280.268 121.226Z" fill="#56A176"/>
<path d="M254.379 128.154C261.169 146.3 268.635 165.161 281.888 179.619L278.602 182.752C265.533 167.317 258.673 147.725 252.501 128.745L254.379 128.154Z" fill="#56A176"/>
<path d="M261.694 133.172C271.712 147.994 278.604 165.102 280.996 182.861L276.467 183.172C275.087 165.86 269.289 148.898 260.403 134.011L261.694 133.172Z" fill="#56A176"/>
<path d="M251.923 148.32C256.64 161.896 268.862 171.528 281.566 177.328L279.548 181.395C266.583 174.332 254.398 163.313 250.47 148.631L251.923 148.32Z" fill="#56A176"/>
<path d="M260.795 214.937C259.926 215.798 258.98 216.578 257.968 217.266C257.043 217.891 256.069 218.439 255.054 218.905C251.616 220.488 247.669 221.191 243.447 221.06C242.289 221.023 241.133 220.928 239.985 220.774C230.055 219.461 219.057 213.876 209.857 204.597C200.964 195.639 195.546 185.031 194.074 175.363C193.894 174.181 193.774 173.015 193.714 171.865C193.526 168.826 193.83 165.776 194.616 162.834C194.989 161.498 195.485 160.198 196.098 158.953C197.854 155.345 200.669 152.359 204.168 150.393C205.13 149.849 206.134 149.383 207.17 149C212.165 147.132 218.091 146.971 224.287 148.381C225.617 148.682 226.958 149.057 228.31 149.506C236.045 152.046 243.978 156.944 250.892 163.919C256.456 169.53 260.665 175.786 263.384 182.056C264.067 183.615 264.666 185.21 265.18 186.833C267.589 194.455 267.737 201.866 265.391 207.871C264.992 208.895 264.513 209.886 263.958 210.835C263.089 212.336 262.025 213.715 260.795 214.937Z" fill="#56A176"/>
<path d="M243.447 221.056C242.289 221.019 241.133 220.924 239.985 220.77L238.02 212.936L222.352 208.155L221.168 195.886L207.524 189.174L203.194 177.741L194.089 175.346C193.908 174.164 193.788 172.998 193.729 171.848L205.677 174.988L210.151 186.786L224.278 193.735L225.426 205.641L240.775 210.323L243.447 221.056Z" fill="#75C775"/>
<path d="M257.968 217.262C257.043 217.886 256.069 218.435 255.054 218.9L250.862 206.863L238.295 198.991L236.86 190.31L223.082 184.47L210.897 168.42L196.71 166.205L194.627 162.841C194.999 161.504 195.496 160.205 196.109 158.96L198.724 163.195L212.737 165.378L225.195 181.789L239.833 187.993L241.315 197.007L253.595 204.706L257.968 217.262Z" fill="#75C775"/>
<path d="M263.955 210.848L260.69 209.529L255.609 191.988L244.939 187.47L233.491 175.926L225.085 173.58L219.58 162.055L206.136 156.237L204.163 150.393C205.125 149.849 206.129 149.383 207.166 148.999L208.787 153.797L222.017 159.514L227.41 170.802L235.214 172.983L246.82 184.683L258.332 189.553L263.413 207.062L265.397 207.86C264.996 208.892 264.514 209.891 263.955 210.848Z" fill="#75C775"/>
<path d="M265.171 186.831L247.809 177.106L244.044 166.792L229.858 161.335L229.585 160.713C227.999 157.156 225.684 151.881 224.291 148.377C225.621 148.678 226.962 149.053 228.314 149.502C229.432 152.165 230.891 155.532 232.32 158.75L246.638 164.255L250.473 174.832L263.369 182.054C264.055 183.613 264.656 185.208 265.171 186.831Z" fill="#75C775"/>
<path d="M205.257 244.309L244.635 242.121L241.86 192.179L202.482 194.367L205.257 244.309Z" fill="#F24C3E"/>
<path d="M202.446 194.409L192.522 194.961L195.297 244.902L205.221 244.351L202.446 194.409Z" fill="#CE302C"/>
<path d="M211.096 225.423L236.738 223.998L235.5 201.709L209.858 203.134L211.096 225.423Z" fill="#CE302C"/>
<path d="M313.877 144.508C305.249 170.738 302.02 193.244 306.678 194.775C311.336 196.305 322.101 176.284 330.729 150.054C339.357 123.824 342.586 101.32 337.928 99.7873C333.27 98.2543 322.507 118.278 313.877 144.508Z" fill="#E5C83C"/>
<path d="M327.833 116.581C330.615 116.351 333.378 117.208 335.542 118.971C332.76 119.201 329.997 118.344 327.833 116.581Z" fill="#F5E34C"/>
<path d="M331.21 110.616C332.184 110.386 333.202 110.422 334.158 110.72C335.114 111.018 335.972 111.567 336.643 112.31C335.669 112.54 334.651 112.504 333.695 112.206C332.739 111.908 331.881 111.359 331.21 110.616Z" fill="#F5E34C"/>
<path d="M325.946 123.301C328.728 123.072 331.492 123.928 333.658 125.689C330.875 125.92 328.111 125.064 325.946 123.301Z" fill="#F5E34C"/>
<path d="M323.898 129.524C326.681 129.294 329.445 130.15 331.61 131.914C328.827 132.145 326.063 131.288 323.898 129.524Z" fill="#F5E34C"/>
<path d="M321.209 136.024C323.991 135.794 326.754 136.651 328.919 138.414C326.137 138.643 323.374 137.786 321.209 136.024Z" fill="#F5E34C"/>
<path d="M302.701 205.084C307.6 205.006 311.216 182.562 310.778 154.952C310.339 127.343 306.012 105.024 301.113 105.102C296.214 105.18 292.598 127.625 293.036 155.234C293.475 182.843 297.802 205.162 302.701 205.084Z" fill="#E5C83C"/>
<path d="M297.071 124.277C299.625 123.148 302.516 123.053 305.138 124.01C302.585 125.138 299.694 125.234 297.071 124.277Z" fill="#F5E34C"/>
<path d="M298.308 117.536C299.152 116.999 300.125 116.699 301.125 116.666C302.125 116.632 303.115 116.868 303.993 117.347C303.149 117.884 302.176 118.185 301.176 118.218C300.176 118.251 299.186 118.015 298.308 117.536Z" fill="#F5E34C"/>
<path d="M297.491 131.245C300.044 130.117 302.935 130.021 305.558 130.979C303.004 132.107 300.113 132.203 297.491 131.245Z" fill="#F5E34C"/>
<path d="M297.594 137.799C300.148 136.67 303.039 136.575 305.661 137.532C303.108 138.66 300.217 138.756 297.594 137.799Z" fill="#F5E34C"/>
<path d="M284.64 137.354L288.875 141.627L293.855 139.912L297.865 145.309L303.131 142.182L305.947 147.115L311.643 143.183L314.87 149.501L319.528 145.849L322.192 151.142L326.981 147.517L314.294 244.48L251.584 241.327L284.64 137.354Z" fill="#FBE9DB"/>
<path d="M314.302 244.478L328.112 245.421L334.889 148.087L329.276 150.442L326.99 147.515L314.302 244.478Z" fill="#FBD5B7"/>
<path d="M238.956 213.581H213.336V244.588H238.956V213.581Z" fill="#FBE9DB"/>
<path d="M234.486 219.262H217.803V233.099H234.486V219.262Z" fill="#FBD5B7"/>
<path d="M248.834 243.943H293.277V206.387H248.834V243.943Z" fill="#AEE1F4"/>
<path d="M248.831 206.386H237.63V243.942H248.831V206.386Z" fill="#86D6F4"/>
<path d="M256.583 230.025H285.525V213.264H256.583V230.025Z" fill="#86D6F4"/>
<path d="M176.618 136.353L171.291 136.564C171.956 136.353 197.726 275.836 197.726 275.836H307.607C308.648 275.794 309.188 275.253 309.229 274.214C309.27 273.133 308.729 272.569 307.607 272.521C239.489 272.813 205.279 272.355 202.202 271.149C198.459 269.622 177.323 136.353 176.618 136.353Z" fill="#000644"/>
<path d="M332.084 217.496H188.579C187.965 217.496 187.47 217.058 187.47 216.518C187.47 215.978 187.965 215.54 188.579 215.54H332.084C332.696 215.54 333.192 215.976 333.192 216.518C333.192 217.06 332.696 217.496 332.084 217.496ZM337.24 190.549H183.847C183.235 190.549 182.74 190.11 182.74 189.57C182.74 189.031 183.235 188.59 183.847 188.59H337.24C337.852 188.59 338.347 189.028 338.347 189.57C338.347 190.113 337.852 190.549 337.24 190.549Z" fill="#000644"/>
<path d="M314.504 244.891C314.465 244.89 314.426 244.885 314.387 244.878C314.26 244.856 314.139 244.81 314.031 244.741C313.922 244.673 313.828 244.583 313.754 244.478C313.68 244.373 313.627 244.255 313.599 244.129C313.57 244.004 313.567 243.874 313.589 243.747L327.305 163.94C327.326 163.812 327.371 163.69 327.44 163.581C327.508 163.471 327.597 163.377 327.703 163.302C327.808 163.228 327.927 163.175 328.053 163.148C328.179 163.12 328.309 163.118 328.436 163.141C328.691 163.185 328.918 163.327 329.069 163.538C329.219 163.749 329.28 164.01 329.238 164.266L315.518 244.09C315.475 244.324 315.348 244.535 315.162 244.682C314.975 244.829 314.741 244.903 314.504 244.891ZM299.411 245.579C299.372 245.582 299.333 245.582 299.295 245.579C299.167 245.566 299.042 245.528 298.929 245.468C298.816 245.407 298.716 245.324 298.634 245.225C298.553 245.125 298.492 245.011 298.455 244.888C298.418 244.765 298.405 244.635 298.418 244.508L306.464 163.931C306.475 163.803 306.512 163.678 306.573 163.564C306.633 163.45 306.715 163.349 306.815 163.267C306.915 163.186 307.03 163.125 307.154 163.088C307.277 163.052 307.407 163.04 307.535 163.054C307.794 163.081 308.031 163.208 308.195 163.409C308.359 163.61 308.437 163.868 308.412 164.126L300.366 244.702C300.339 244.939 300.228 245.157 300.052 245.317C299.876 245.477 299.649 245.568 299.411 245.573V245.579ZM208.999 245.191C208.759 245.192 208.526 245.103 208.347 244.943C208.167 244.782 208.054 244.561 208.027 244.321L199.107 163.914C199.088 163.784 199.096 163.652 199.129 163.525C199.163 163.398 199.221 163.279 199.302 163.175C199.382 163.071 199.483 162.984 199.598 162.92C199.712 162.856 199.839 162.816 199.969 162.802C200.1 162.787 200.232 162.8 200.358 162.838C200.483 162.875 200.6 162.938 200.701 163.022C200.802 163.107 200.885 163.21 200.945 163.327C201.005 163.444 201.041 163.571 201.051 163.702L209.973 244.109C209.987 244.237 209.976 244.367 209.94 244.49C209.904 244.613 209.845 244.729 209.764 244.829C209.684 244.929 209.584 245.013 209.472 245.074C209.359 245.136 209.235 245.175 209.107 245.189L208.999 245.191ZM279.931 245.45H279.806C278.712 245.505 277.843 245.109 277.867 244.567L281.369 163.63C281.39 163.088 282.33 162.572 283.393 162.548C284.49 162.491 285.358 162.887 285.333 163.431L281.828 244.383C281.809 244.897 280.962 245.361 279.927 245.45H279.931ZM232.521 245.191C232.271 245.191 232.031 245.095 231.849 244.923C231.668 244.751 231.559 244.516 231.545 244.266L227.24 163.859C227.237 163.606 227.332 163.361 227.505 163.176C227.678 162.991 227.916 162.88 228.169 162.866C228.422 162.853 228.67 162.938 228.862 163.104C229.054 163.269 229.174 163.503 229.197 163.755L233.499 244.16C233.507 244.289 233.488 244.417 233.446 244.539C233.403 244.66 233.337 244.772 233.251 244.868C233.165 244.964 233.061 245.042 232.945 245.097C232.829 245.153 232.703 245.185 232.574 245.191H232.521ZM256.164 245.191C256.035 245.191 255.908 245.165 255.79 245.115C255.671 245.066 255.564 244.993 255.473 244.902C255.383 244.811 255.311 244.703 255.263 244.584C255.214 244.465 255.189 244.337 255.19 244.209L255.503 163.802C255.504 163.543 255.608 163.295 255.791 163.113C255.974 162.93 256.223 162.828 256.481 162.828C256.61 162.828 256.737 162.854 256.855 162.904C256.974 162.954 257.081 163.026 257.172 163.117C257.262 163.209 257.334 163.317 257.382 163.436C257.431 163.555 257.456 163.682 257.455 163.81L257.142 244.217C257.141 244.346 257.116 244.473 257.066 244.591C257.016 244.71 256.944 244.817 256.852 244.908C256.761 244.998 256.653 245.07 256.534 245.119C256.415 245.167 256.288 245.192 256.16 245.191H256.164Z" fill="#000644"/>
<path d="M206.111 298.177C216.114 298.516 221.617 285.341 214.282 278.528C203.232 267.941 187.514 283.576 197.877 294.747V294.808C200.124 297.055 202.869 298.178 206.111 298.177Z" fill="#000644"/>
<path d="M206.094 293.339C211.917 293.535 215.123 285.866 210.852 281.905C204.419 275.745 195.268 284.844 201.302 291.346V291.382C201.925 292.018 202.672 292.519 203.496 292.856C204.32 293.192 205.204 293.357 206.094 293.339Z" fill="#686E9E"/>
<path d="M237.67 298.177C247.671 298.516 253.176 285.341 245.841 278.528C234.789 267.941 219.071 283.576 229.436 294.747V294.808C231.68 297.055 234.425 298.178 237.67 298.177Z" fill="#000644"/>
<path d="M237.654 293.339C243.476 293.535 246.68 285.866 242.409 281.905C235.977 275.745 226.828 284.844 232.86 291.346V291.382C233.483 292.018 234.23 292.52 235.055 292.856C235.879 293.193 236.763 293.357 237.654 293.339Z" fill="#686E9E"/>
<path d="M295.1 298.177C305.102 298.516 310.605 285.341 303.271 278.528C292.22 267.941 276.503 283.576 286.866 294.747V294.808C289.113 297.055 291.858 298.178 295.1 298.177Z" fill="#000644"/>
<path d="M295.085 293.339C300.906 293.535 304.112 285.866 299.841 281.905C293.408 275.745 284.257 284.844 290.291 291.346V291.382C290.915 292.018 291.661 292.52 292.486 292.856C293.31 293.193 294.195 293.357 295.085 293.339Z" fill="#686E9E"/>
<path d="M326.626 246.534H195.127V243.851H325.355L340.778 164.774H177.847V162.093H342.578C342.793 162.091 343.006 162.132 343.205 162.213C343.403 162.295 343.583 162.417 343.734 162.57C343.873 162.712 343.976 162.885 344.034 163.075C344.092 163.266 344.103 163.467 344.067 163.662L328.118 245.42C328.037 245.75 327.843 246.041 327.571 246.244C327.299 246.447 326.965 246.549 326.626 246.534Z" fill="#000644"/>
<path d="M207.417 52.7543C207.665 52.1529 208.036 51.6102 208.506 51.1611C208.976 50.712 209.536 50.3666 210.148 50.147C212.204 49.4397 216.497 48.7529 216.592 49.5959C216.687 50.439 215.622 53.9551 215.622 53.9551L207.417 52.7543Z" fill="#024E0C"/>
<path d="M215.132 50.6856C215.132 50.6856 217.785 47.9056 220.478 48.6294C223.172 49.3532 223.534 51.4546 223.534 51.4546C223.534 51.4546 218.455 56.0934 215.132 50.6856Z" fill="#00500B"/>
<path d="M213.898 54.1443C213.898 54.1443 211.279 49.4602 206.13 53.3218C204.222 54.7488 205.308 57.6398 205.308 57.6398C205.308 57.6398 208.31 73.0532 212.517 71.9428C216.724 70.8324 216.629 69.7303 217.427 67.6741C218.225 65.6179 213.898 54.1443 213.898 54.1443Z" fill="#006912"/>
<path d="M210.14 53.589C210.14 53.589 210.641 52.2031 212.813 51.2244C214.984 50.2456 212.184 47.2436 211.139 46.7007C210.094 46.1579 211.896 44.698 212.196 45.0558C212.496 45.4135 214.042 46.7501 214.758 48.3457C215.473 49.9413 217.053 51.2244 218.114 50.6733C219.175 50.1223 216.798 55.5054 210.14 53.589Z" fill="#518D23"/>
<path d="M210.814 53.7578C211.035 53.2596 211.311 52.7879 211.637 52.3513C211.949 51.9401 213.533 51.755 213.759 51.2657C214.844 48.9586 211.55 46.9682 211.201 46.4377C211.201 46.4377 211.431 45.4836 212.229 46.5487C213.977 48.8928 215.753 51.4836 216.925 51.3603C219.035 51.1094 217.534 53.0463 216.173 52.5693C214.811 52.0923 215.646 52.6803 213.75 53.145L210.814 53.7578Z" fill="#7EB341"/>
<path d="M218.488 67.8592C218.656 70.2032 222.156 70.9065 223.998 70.3019C225.841 69.6974 226.182 64.3389 225.931 60.0744C225.68 55.8098 225.084 51.2656 221.346 50.1018C219.442 49.5055 218.027 50.768 216.933 51.5288C216.188 52.0536 215.548 52.7133 215.046 53.4739L218.488 67.8592Z" fill="#006912"/>
<path d="M209.025 53.6137C209.025 53.6137 214.552 53.5232 217.456 52.0263C218.644 51.4135 222.563 53.9715 221.617 62.7556C220.671 71.5397 219.948 70.9434 217.916 71.4163C215.885 71.8893 212.039 68.6898 210.345 65.659C208.651 62.6281 209.235 61.452 207.684 59.4903C206.134 57.5287 207.076 54.1935 209.025 53.6137Z" fill="#007D15"/>
<mask id="mask0_324_196" style="mask-type:luminance" maskUnits="userSpaceOnUse" x="206" y="51" width="16" height="21">
<path d="M209.025 53.6138C209.025 53.6138 213.96 53.3465 216.641 51.4589C218.286 50.2869 222.563 53.9716 221.617 62.7557C220.671 71.5398 219.948 70.9435 217.916 71.4165C215.885 71.8894 212.039 68.6899 210.345 65.6591C208.651 62.6282 209.235 61.4521 207.684 59.4904C206.134 57.5288 207.076 54.1937 209.025 53.6138Z" fill="white"/>
</mask>
<g mask="url(#mask0_324_196)">
<path d="M208.898 61.9867C208.898 61.9867 210.818 66.6872 216.172 66.5927C221.527 66.4981 222.534 61.5015 221.983 58.6228C221.432 55.7441 221.613 51.6317 218.636 51.0436C215.658 50.4555 214.235 51.4795 210.333 52.7091C206.43 53.9387 203.893 56.2911 206.007 58.6146C208.12 60.9381 208.898 61.9867 208.898 61.9867Z" fill="#00A71E"/>
</g>
<g opacity="0.25">
<path d="M213.738 54.8022C213.738 54.8022 209.765 53.5684 208.832 56.1757C207.898 58.783 209.852 62.1511 210.477 63.0352C211.102 63.9194 208.947 58.0756 210.95 56.3731C212.953 54.6706 213.767 55.2011 213.738 54.8022Z" fill="white"/>
</g>
<g opacity="0.25">
<path d="M218.878 50.5788C218.878 50.5788 222.481 49.5055 223.965 53.5644C225.45 57.6234 222.448 50.3609 218.878 50.5788Z" fill="white"/>
</g>
</svg>
